<svg xmlns="http://www.w3.org/2000/svg" version="1.1" xmlns:xlink="http://www.w3.org/1999/xlink" xmlns:svgjs="http://svgjs.dev/svgjs" width="100%" height="100%" viewBox="0 0 1000 600"><rect width="1000" height="600" x="0" y="0" fill="#dddddd"/><g><circle r="166.66666666666666" cx="496.25675455729163" cy="518.4791318847074" fill="#7d1122" transform="matrix(0.37925881392376537,0,0,0.3792588139237654,0,103.36221387009017)"/><path d="M542.1736584155942 552.6577911648181L542.1736584155942 552.6577911648181Q542.1736584155942 565.6309175467345 535.7296766022573 574.7717199427454Q529.2856947889203 583.9125223387565 517.7035600759622 588.7100242174083Q506.12142536300405 593.4791385109793 490.45147839841366 593.4791385109793L490.45147839841366 593.4791385109793Q482.1906911399068 593.4791385109793 474.78153143382326 592.6842861287174Q467.4007593128206 591.8894337464557 461.2122657652106 590.3848917371744Q455.0237722176006 588.9087373129738 450.33982067927195 586.694505676673L450.33982067927195 586.694505676673L450.33982067927195 570.4284194253862Q457.8341431405978 573.5226661991911 468.6214254712941 576.1627116117037Q479.3803202169096 578.831144609297 491.16116802543314 578.831144609297L491.16116802543314 578.831144609297Q502.1471634516949 578.831144609297 509.72664866826307 575.8788357608959Q517.3061338848313 572.9265269124948 521.2520082110595 567.3909478217428Q525.197882537288 561.8553687309907 525.197882537288 554.0771704188571L525.197882537288 554.0771704188571Q525.197882537288 546.5828479575313 521.9049226679176 541.5298578131525Q518.6119627985471 536.5052552538544 510.9757024118174 532.3606678320607Q503.33944202508764 528.2160804102668 490.16760254760584 523.5321288719382L490.16760254760584 523.5321288719382Q480.88486222619093 520.2391690025677 473.787965955996 516.2932946763394Q466.71945727088183 512.347420350111 461.9219553922301 507.35120537589376Q457.1244535135783 502.3833779867573 454.68312119663125 495.7974582480164Q452.24178887968424 489.18315092419476 452.24178887968424 480.7236505701224L452.24178887968424 480.7236505701224Q452.24178887968424 469.02796551684116 458.17479416156715 460.7104030881727Q464.1077994434501 452.3644530744235 474.6395935084194 447.93598980182185Q485.17138757338864 443.47913894413944 498.85420358232443 443.47913894413944L498.85420358232443 443.47913894413944Q510.5215010505249 443.47913894413944 520.4571558287978 445.6933705804403Q530.3928106070707 447.8792146316603 538.6535978655776 451.56960069216166L538.6535978655776 451.56960069216166L533.3735070405526 466.13243183860163Q525.4817583880958 462.8394719692312 516.6532194279733 460.6536279180112Q507.82468046785084 458.46778386679114 498.45677739119355 458.46778386679114L498.45677739119355 458.46778386679114Q489.0604867294555 458.46778386679114 482.61650491611846 461.192992034546Q476.2009106878623 463.94658778738165 472.7944004781687 468.94280276159884Q469.4162778535559 473.93901773581604 469.4162778535559 480.8088133253647L469.4162778535559 480.8088133253647Q469.4162778535559 488.501848882256 472.6524625527648 493.5832266117156Q475.8886472519737 498.66460434117516 483.0423186923302 502.6104786674035Q490.16760254760584 506.5563529936319 501.94845035612946 510.84287834082966L501.94845035612946 510.84287834082966Q514.8080263977226 515.5552174642391 523.8068908683298 520.7785331191026Q532.7773677538562 526.0302363590467 537.4613192921848 533.5529464054534Q542.1736584155942 541.1040440369408 542.1736584155942 552.6577911648181Z " fill="#ffffff" transform="matrix(0.37925881392376537,0,0,0.3792588139237654,0,103.36221387009017)"/><path d="M803.4650698301764 535.458308932904L803.4650698301764 535.458308932904Q803.4650698301764 543.145808932904 799.6109031635098 548.395808932904Q795.7775698301764 553.6249755995707 788.6317364968431 556.270808932904Q781.4859031635098 558.895808932904 771.6109031635098 558.895808932904L771.6109031635098 558.895808932904Q763.1734031635098 558.895808932904 757.0275698301764 557.583308932904Q750.8817364968431 556.270808932904 746.2567364968431 553.8541422662374L746.2567364968431 553.8541422662374L746.2567364968431 542.645808932904Q751.1734031635098 545.0624755995707 757.9859031635098 547.0416422662374Q764.7984031635098 549.020808932904 771.9025698301764 549.020808932904L771.9025698301764 549.020808932904Q782.2984031635098 549.020808932904 786.9859031635098 545.6458089329041Q791.6734031635098 542.270808932904 791.6734031635098 536.4999755995707L791.6734031635098 536.4999755995707Q791.6734031635098 533.1874755995707 789.7984031635098 530.6666422662374Q787.9442364968431 528.145808932904 783.5484031635098 525.7499755995707Q779.1525698301764 523.3749755995707 771.3817364968431 520.520808932904L771.3817364968431 520.520808932904Q763.6942364968431 517.5833089329041 758.0900698301764 514.708308932904Q752.4859031635098 511.8124755995707 749.4442364968431 507.6249755995707Q746.4025698301764 503.458308932904 746.4025698301764 496.7916422662374L746.4025698301764 496.7916422662374Q746.4025698301764 486.6041422662374 754.6525698301764 481.14580893290406Q762.8817364968431 475.70830893290406 776.2984031635098 475.70830893290406L776.2984031635098 475.70830893290406Q783.5484031635098 475.70830893290406 789.8817364968431 477.1249755995707Q796.2150698301764 478.5624755995707 801.6942364968431 480.9791422662373L801.6942364968431 480.9791422662373L797.6109031635098 490.708308932904Q792.6317364968431 488.58330893290406 786.9859031635098 487.1249755995707Q781.3400698301764 485.6666422662373 775.4859031635098 485.6666422662373L775.4859031635098 485.6666422662373Q767.0692364968431 485.6666422662373 762.5484031635098 488.4374755995707Q758.0484031635098 491.2291422662374 758.0484031635098 496.0624755995707L758.0484031635098 496.0624755995707Q758.0484031635098 499.7916422662373 760.1317364968431 502.208308932904Q762.2359031635098 504.6249755995707 766.8400698301764 506.7499755995707Q771.4442364968431 508.8749755995707 779.0067364968431 511.7291422662374L779.0067364968431 511.7291422662374Q786.5484031635098 514.520808932904 792.0275698301764 517.4791422662374Q797.5275698301764 520.458308932904 800.4859031635098 524.6666422662373Q803.4650698301764 528.8749755995707 803.4650698301764 535.458308932904ZM855.1734031635098 558.895808932904L855.1734031635098 558.895808932904Q844.3400698301765 558.895808932904 836.0484031635098 554.4374755995707Q827.7775698301764 549.958308932904 823.1734031635098 540.8124755995707Q818.5484031635098 531.645808932904 818.5484031635098 517.7499755995707L818.5484031635098 517.7499755995707Q818.5484031635098 503.1666422662374 823.4234031635096 493.895808932904Q828.2984031635098 484.6249755995707 836.8609031635098 480.1666422662373Q845.4234031635098 475.70830893290406 856.3400698301765 475.70830893290406L856.3400698301765 475.70830893290406Q862.3400698301765 475.70830893290406 867.944236496843 476.9166422662374Q873.5484031635098 478.1249755995707 877.1525698301765 479.9374755995707L877.1525698301765 479.9374755995707L873.4859031635098 490.1249755995707Q869.819236496843 488.6666422662374 865.0275698301765 487.4999755995707Q860.2150698301765 486.3124755995707 856.0484031635098 486.3124755995707L856.0484031635098 486.3124755995707Q847.694236496843 486.3124755995707 842.1734031635098 489.9166422662374Q836.6317364968431 493.4999755995707 833.9025698301764 500.458308932904Q831.1525698301764 507.4166422662374 831.1525698301764 517.5833089329041L831.1525698301764 517.5833089329041Q831.1525698301764 527.333308932904 833.8192364968431 534.2291422662374Q836.4859031635098 541.1041422662373 841.7984031635098 544.7291422662374Q847.1109031635098 548.3541422662374 855.0900698301765 548.3541422662374L855.0900698301765 548.3541422662374Q861.4650698301765 548.3541422662374 866.5900698301765 546.9999755995707Q871.7150698301765 545.6458089329041 875.9025698301765 543.8124755995707L875.9025698301765 543.8124755995707L875.9025698301765 554.645808932904Q871.8609031635098 556.708308932904 866.9234031635098 557.8124755995707Q861.9859031635098 558.895808932904 855.1734031635098 558.895808932904ZM924.9025698301765 475.8541422662374L924.9025698301765 475.8541422662374Q939.256736496843 475.8541422662374 946.2150698301765 482.2916422662374Q953.1734031635098 488.7291422662374 953.1734031635098 502.8749755995707L953.1734031635098 502.8749755995707L953.1734031635098 557.4374755995707L944.2984031635098 557.4374755995707L941.9650698301765 545.5624755995707L941.381736496843 545.5624755995707Q938.006736496843 549.958308932904 934.3400698301765 552.9374755995707Q930.6734031635098 555.895808932904 925.881736496843 557.395808932904Q921.0900698301765 558.895808932904 914.131736496843 558.895808932904L914.131736496843 558.895808932904Q906.7984031635098 558.895808932904 901.131736496843 556.333308932904Q895.444236496843 553.770808932904 892.194236496843 548.583308932904Q888.944236496843 543.3749755995707 888.944236496843 535.395808932904L888.944236496843 535.395808932904Q888.944236496843 523.3749755995707 898.4650698301765 516.9374755995707Q907.9859031635098 510.4791422662374 927.4650698301765 509.895808932904L927.4650698301765 509.895808932904L941.2984031635098 509.3124755995707L941.2984031635098 504.4166422662374Q941.2984031635098 493.9999755995707 936.8400698301765 489.833308932904Q932.3609031635098 485.6666422662373 924.2359031635098 485.6666422662373L924.2359031635098 485.6666422662373Q917.944236496843 485.6666422662373 912.2359031635098 487.4999755995707Q906.506736496843 489.3124755995707 901.381736496843 491.8124755995707L901.381736496843 491.8124755995707L897.6525698301765 482.583308932904Q903.069236496843 479.7916422662373 910.1109031635098 477.833308932904Q917.131736496843 475.8541422662374 924.9025698301765 475.8541422662374ZM941.1525698301765 525.2916422662374L941.1525698301765 517.895808932904L928.9234031635098 518.3958089329041Q913.9025698301765 518.9791422662374 907.756736496843 523.3124755995707Q901.6109031635098 527.6249755995707 901.6109031635098 535.5416422662374L901.6109031635098 535.5416422662374Q901.6109031635098 542.4166422662374 905.7775698301765 545.708308932904Q909.9650698301765 549.020808932904 916.8400698301765 549.020808932904L916.8400698301765 549.020808932904Q927.5275698301765 549.020808932904 934.3400698301765 543.083308932904Q941.1525698301765 537.145808932904 941.1525698301765 525.2916422662374L941.1525698301765 525.2916422662374ZM1016.2359031635098 475.70830893290406L1016.2359031635098 475.70830893290406Q1030.5067364968431 475.70830893290406 1037.8400698301766 482.6874755995707Q1045.1525698301766 489.6874755995707 1045.1525698301766 505.145808932904L1045.1525698301766 505.145808932904L1045.1525698301766 557.4374755995707L1033.1525698301766 557.4374755995707L1033.1525698301766 505.958308932904Q1033.1525698301766 495.9166422662374 1028.5692364968431 490.9374755995707Q1023.9859031635098 485.958308932904 1014.5484031635098 485.958308932904L1014.5484031635098 485.958308932904Q1001.2150698301765 485.958308932904 995.7984031635098 493.4999755995707Q990.381736496843 501.0416422662374 990.381736496843 515.395808932904L990.381736496843 515.395808932904L990.381736496843 557.4374755995707L978.2150698301765 557.4374755995707L978.2150698301765 477.1666422662374L988.0275698301765 477.1666422662374L989.8609031635098 488.7291422662374L990.5275698301765 488.7291422662374Q993.0900698301765 484.4791422662373 997.0484031635098 481.6041422662374Q1000.9859031635098 478.708308932904 1005.9025698301765 477.20830893290406Q1010.8192364968432 475.70830893290406 1016.2359031635098 475.70830893290406ZM1098.7775698301766 558.895808932904L1098.7775698301766 558.895808932904Q1083.5484031635096 558.895808932904 1074.6317364968431 548.4999755995707Q1065.7359031635096 538.1041422662374 1065.7359031635096 517.5833089329041L1065.7359031635096 517.5833089329041Q1065.7359031635096 496.8749755995707 1074.8192364968431 486.2916422662374Q1083.9025698301766 475.70830893290406 1098.9859031635096 475.70830893290406L1098.9859031635096 475.70830893290406Q1105.3609031635096 475.70830893290406 1110.1317364968431 477.3749755995707Q1114.8817364968431 479.0624755995707 1118.3192364968431 481.89580893290406Q1121.7775698301766 484.70830893290406 1124.1109031635096 488.2916422662374L1124.1109031635096 488.2916422662374L1124.9859031635096 488.2916422662374Q1124.6942364968431 486.020808932904 1124.4025698301766 482.0624755995707Q1124.1109031635096 478.1249755995707 1124.1109031635096 475.6249755995707L1124.1109031635096 475.6249755995707L1124.1109031635096 443.4791422662373L1136.2775698301766 443.4791422662373L1136.2775698301766 557.4374755995707L1126.4650698301766 557.4374755995707L1124.6317364968431 546.020808932904L1124.1109031635096 546.020808932904Q1121.8400698301766 549.6041422662374 1118.3609031635096 552.520808932904Q1114.8817364968431 555.458308932904 1110.0900698301766 557.1874755995707Q1105.2984031635096 558.895808932904 1098.7775698301766 558.895808932904ZM1100.6734031635096 548.7916422662374L1100.6734031635096 548.7916422662374Q1113.5692364968431 548.7916422662374 1118.9234031635096 541.4791422662374Q1124.2567364968431 534.145808932904 1124.2567364968431 519.708308932904L1124.2567364968431 519.708308932904L1124.2567364968431 517.5208089329041Q1124.2567364968431 502.208308932904 1119.1734031635096 493.9999755995707Q1114.0900698301766 485.8124755995707 1100.6734031635096 485.8124755995707L1100.6734031635096 485.8124755995707Q1089.4650698301766 485.8124755995707 1083.9025698301766 494.4166422662374Q1078.3400698301766 503.020808932904 1078.3400698301766 517.895808932904L1078.3400698301766 517.895808932904Q1078.3400698301766 532.6874755995707 1083.8609031635096 540.7291422662374Q1089.4025698301766 548.7916422662374 1100.6734031635096 548.7916422662374ZM1161.9859031635096 477.1666422662374L1174.1317364968431 477.1666422662374L1174.1317364968431 557.4374755995707L1161.9859031635096 557.4374755995707L1161.9859031635096 477.1666422662374ZM1168.2150698301766 447.1249755995707L1168.2150698301766 447.1249755995707Q1171.2150698301766 447.1249755995707 1173.3609031635096 449.08330893290406Q1175.5275698301766 451.02080893290406 1175.5275698301766 455.1249755995707L1175.5275698301766 455.1249755995707Q1175.5275698301766 459.14580893290406 1173.3609031635096 461.1249755995707Q1171.2150698301766 463.1041422662373 1168.2150698301766 463.1041422662373L1168.2150698301766 463.1041422662373Q1165.0484031635096 463.1041422662373 1162.9650698301766 461.1249755995707Q1160.8817364968431 459.14580893290406 1160.8817364968431 455.1249755995707L1160.8817364968431 455.1249755995707Q1160.8817364968431 451.02080893290406 1162.9650698301766 449.08330893290406Q1165.0484031635096 447.1249755995707 1168.2150698301766 447.1249755995707ZM1279.3192364968431 557.2916422662374L1265.1734031635096 557.2916422662374L1250.9025698301766 510.5624755995707Q1249.9442364968431 507.5624755995707 1249.1109031635096 504.6666422662374Q1248.2567364968431 501.770808932904 1247.5692364968431 499.1041422662374Q1246.8609031635096 496.4166422662374 1246.3192364968431 494.1249755995707Q1245.7775698301766 491.8124755995707 1245.4025698301766 490.1249755995707L1245.4025698301766 490.1249755995707L1244.8817364968431 490.1249755995707Q1244.5900698301766 491.8124755995707 1244.0900698301766 494.1249755995707Q1243.5692364968431 496.4166422662374 1242.8817364968431 499.145808932904Q1242.1734031635096 501.8541422662374 1241.3817364968431 504.8124755995707Q1240.5692364968431 507.770808932904 1239.5484031635096 510.7916422662374L1239.5484031635096 510.7916422662374L1224.6109031635096 557.2916422662374L1210.9025698301766 557.2916422662374L1188.7984031635096 477.020808932904L1201.3817364968431 477.020808932904L1212.9650698301766 521.333308932904Q1214.1317364968431 525.7291422662374 1215.1942364968431 529.9999755995707Q1216.2567364968431 534.2916422662374 1217.0275698301766 538.0624755995707Q1217.7984031635096 541.833308932904 1218.1525698301766 544.6249755995707L1218.1525698301766 544.6249755995707L1218.7359031635096 544.6249755995707Q1219.1942364968431 542.7916422662374 1219.7359031635096 540.2291422662374Q1220.2775698301766 537.6666422662374 1220.9859031635096 534.770808932904Q1221.6734031635096 531.8749755995707 1222.4859031635096 528.9791422662374Q1223.2775698301766 526.083308932904 1224.0900698301766 523.520808932904L1224.0900698301766 523.520808932904L1238.8817364968431 477.020808932904L1252.0067364968431 477.020808932904L1266.2775698301766 523.458308932904Q1267.3817364968431 526.958308932904 1268.4442364968431 530.770808932904Q1269.5067364968431 534.583308932904 1270.3817364968431 538.145808932904Q1271.2567364968431 541.6874755995707 1271.6317364968431 544.4791422662374L1271.6317364968431 544.4791422662374L1272.2150698301766 544.4791422662374Q1272.5067364968431 541.9791422662374 1273.3192364968431 538.3124755995707Q1274.1109031635096 534.6666422662374 1275.1734031635096 530.270808932904Q1276.2359031635096 525.8749755995707 1277.4025698301766 521.333308932904L1277.4025698301766 521.333308932904L1289.1317364968431 477.020808932904L1301.5067364968431 477.020808932904L1279.3192364968431 557.2916422662374ZM1346.9859031635096 475.70830893290406L1346.9859031635096 475.70830893290406Q1357.2359031635096 475.70830893290406 1364.5692364968431 480.2499755995707Q1371.9025698301766 484.770808932904 1375.7775698301766 492.9374755995707Q1379.6525698301766 501.1041422662374 1379.6525698301766 512.020808932904L1379.6525698301766 512.020808932904L1379.6525698301766 519.5624755995707L1324.2150698301766 519.5624755995707Q1324.4234031635096 533.708308932904 1331.2359031635096 541.1041422662373Q1338.0484031635096 548.4999755995707 1350.4442364968431 548.4999755995707L1350.4442364968431 548.4999755995707Q1358.0484031635096 548.4999755995707 1363.9025698301766 547.1041422662374Q1369.7775698301766 545.708308932904 1376.0692364968431 542.9999755995707L1376.0692364968431 542.9999755995707L1376.0692364968431 553.708308932904Q1369.9859031635096 556.4166422662374 1364.0275698301766 557.6666422662374Q1358.0484031635096 558.895808932904 1349.9234031635096 558.895808932904L1349.9234031635096 558.895808932904Q1338.3400698301766 558.895808932904 1329.7359031635096 554.1874755995707Q1321.1317364968431 549.458308932904 1316.3817364968431 540.2916422662373Q1311.6109031635096 531.145808932904 1311.6109031635096 517.895808932904L1311.6109031635096 517.895808932904Q1311.6109031635096 504.9166422662374 1315.9650698301766 495.4374755995707Q1320.3400698301766 485.958308932904 1328.2775698301766 480.833308932904Q1336.2150698301766 475.70830893290406 1346.9859031635096 475.70830893290406ZM1346.8400698301766 485.6666422662373L1346.8400698301766 485.6666422662373Q1337.1109031635096 485.6666422662373 1331.3192364968431 492.0416422662374Q1325.5275698301766 498.395808932904 1324.4234031635096 509.833308932904L1324.4234031635096 509.833308932904L1366.92340316351 509.833308932904Q1366.8400698301766 502.645808932904 1364.6734031635096 497.1874755995707Q1362.5275698301766 491.7291422662374 1358.1317364968431 488.708308932904Q1353.7359031635096 485.6666422662373 1346.8400698301766 485.6666422662373ZM1400.3192364968431 443.4791422662373L1412.4650698301766 443.4791422662373L1412.4650698301766 471.95830893290406Q1412.4650698301766 476.8749755995707 1412.2150698301766 481.4791422662374Q1411.9650698301766 486.1041422662373 1411.8192364968431 488.6666422662374L1411.8192364968431 488.6666422662374L1412.4650698301766 488.6666422662374Q1415.7567364968431 483.2499755995707 1421.98590316351 479.4999755995707Q1428.2150698301766 475.770808932904 1437.8817364968431 475.770808932904L1437.8817364968431 475.770808932904Q1452.9650698301766 475.770808932904 1461.9442364968431 486.20830893290406Q1470.9234031635096 496.645808932904 1470.9234031635096 517.2291422662374L1470.9234031635096 517.2291422662374Q1470.9234031635096 530.770808932904 1466.8192364968431 540.083308932904Q1462.7150698301766 549.3749755995707 1455.2359031635096 554.145808932904Q1447.7775698301766 558.895808932904 1437.5900698301766 558.895808932904L1437.5900698301766 558.895808932904Q1428.0692364968431 558.895808932904 1421.9650698301766 555.3541422662374Q1415.8400698301766 551.7916422662374 1412.54840316351 546.6666422662374L1412.54840316351 546.6666422662374L1411.5900698301766 546.6666422662374L1409.11090316351 557.4374755995707L1400.3192364968431 557.4374755995707L1400.3192364968431 443.4791422662373ZM1435.9025698301766 485.958308932904L1435.9025698301766 485.958308932904Q1427.1942364968431 485.958308932904 1422.0692364968431 489.3541422662374Q1416.9442364968431 492.770808932904 1414.6942364968431 499.6041422662373Q1412.4650698301766 506.458308932904 1412.4650698301766 516.9374755995707L1412.4650698301766 516.9374755995707L1412.4650698301766 517.5833089329041Q1412.4650698301766 532.7499755995707 1417.5275698301766 540.770808932904Q1422.5692364968431 548.7916422662374 1435.9025698301766 548.7916422662374L1435.9025698301766 548.7916422662374Q1447.1109031635096 548.7916422662374 1452.7150698301766 540.583308932904Q1458.3192364968431 532.3958089329041 1458.3192364968431 517.145808932904L1458.3192364968431 517.145808932904Q1458.3192364968431 501.6249755995707 1452.7984031635096 493.7916422662374Q1447.2567364968431 485.958308932904 1435.9025698301766 485.958308932904ZM1556.9859031635096 548.9374755995707L1556.9859031635096 548.9374755995707Q1559.9859031635096 548.9374755995707 1563.1317364968436 548.4374755995707Q1566.2775698301766 547.9166422662374 1568.2567364968431 547.1874755995707L1568.2567364968431 547.1874755995707L1568.2567364968431 556.6249755995707Q1566.1317364968431 557.583308932904 1562.36090316351 558.2499755995707Q1558.5900698301766 558.895808932904 1555.0067364968431 558.895808932904L1555.0067364968431 558.895808932904Q1548.6317364968431 558.895808932904 1543.4234031635096 556.6666422662374Q1538.2359031635096 554.4374755995707 1535.1109031635096 549.083308932904Q1532.0067364968431 543.7499755995707 1532.0067364968431 534.2916422662374L1532.0067364968431 534.2916422662374L1532.0067364968431 486.6874755995707L1520.5692364968431 486.6874755995707L1520.5692364968431 480.7499755995707L1532.0692364968431 475.9999755995707L1536.9025698301766 458.5624755995707L1544.2359031635096 458.5624755995707L1544.2359031635096 477.1666422662374L1567.73590316351 477.1666422662374L1567.73590316351 486.6874755995707L1544.2359031635096 486.6874755995707L1544.2359031635096 533.9166422662374Q1544.2359031635096 541.4791422662374 1547.7150698301766 545.208308932904Q1551.1942364968431 548.9374755995707 1556.9859031635096 548.9374755995707ZM1615.4234031635096 475.70830893290406L1615.4234031635096 475.70830893290406Q1625.67340316351 475.70830893290406 1633.0067364968431 480.2499755995707Q1640.3192364968431 484.770808932904 1644.2150698301766 492.9374755995707Q1648.0900698301766 501.1041422662374 1648.0900698301766 512.020808932904L1648.0900698301766 512.020808932904L1648.0900698301766 519.5624755995707L1592.6525698301766 519.5624755995707Q1592.86090316351 533.708308932904 1599.6734031635096 541.1041422662373Q1606.4859031635096 548.4999755995707 1618.86090316351 548.4999755995707L1618.86090316351 548.4999755995707Q1626.4859031635096 548.4999755995707 1632.3400698301766 547.1041422662374Q1638.1942364968431 545.708308932904 1644.5067364968431 542.9999755995707L1644.5067364968431 542.9999755995707L1644.5067364968431 553.708308932904Q1638.42340316351 556.4166422662374 1632.4442364968431 557.6666422662374Q1626.4859031635096 558.895808932904 1618.36090316351 558.895808932904L1618.36090316351 558.895808932904Q1606.7775698301766 558.895808932904 1598.17340316351 554.1874755995707Q1589.5692364968431 549.458308932904 1584.8192364968431 540.2916422662373Q1580.0484031635096 531.145808932904 1580.0484031635096 517.895808932904L1580.0484031635096 517.895808932904Q1580.0484031635096 504.9166422662374 1584.4025698301766 495.4374755995707Q1588.7567364968431 485.958308932904 1596.7150698301766 480.833308932904Q1604.6525698301766 475.70830893290406 1615.4234031635096 475.70830893290406ZM1615.2775698301766 485.6666422662373L1615.2775698301766 485.6666422662373Q1605.5275698301766 485.6666422662373 1599.7567364968431 492.0416422662374Q1593.9650698301766 498.395808932904 1592.86090316351 509.833308932904L1592.86090316351 509.833308932904L1635.3400698301766 509.833308932904Q1635.2775698301766 502.645808932904 1633.11090316351 497.1874755995707Q1630.9442364968431 491.7291422662374 1626.54840316351 488.708308932904Q1622.1525698301766 485.6666422662373 1615.2775698301766 485.6666422662373ZM1720.6734031635096 535.458308932904L1720.6734031635096 535.458308932904Q1720.6734031635096 543.145808932904 1716.8192364968431 548.395808932904Q1712.9859031635096 553.6249755995707 1705.8400698301766 556.270808932904Q1698.6942364968431 558.895808932904 1688.8192364968431 558.895808932904L1688.8192364968431 558.895808932904Q1680.3817364968431 558.895808932904 1674.23590316351 557.583308932904Q1668.0900698301766 556.270808932904 1663.4650698301766 553.8541422662374L1663.4650698301766 553.8541422662374L1663.4650698301766 542.645808932904Q1668.3817364968431 545.0624755995707 1675.1942364968431 547.0416422662374Q1682.0067364968431 549.020808932904 1689.11090316351 549.020808932904L1689.11090316351 549.020808932904Q1699.5067364968431 549.020808932904 1704.1942364968431 545.6458089329041Q1708.8817364968431 542.270808932904 1708.8817364968431 536.4999755995707L1708.8817364968431 536.4999755995707Q1708.8817364968431 533.1874755995707 1707.0067364968431 530.6666422662374Q1705.1525698301766 528.145808932904 1700.7567364968431 525.7499755995707Q1696.36090316351 523.3749755995707 1688.5900698301766 520.520808932904L1688.5900698301766 520.520808932904Q1680.9025698301766 517.5833089329041 1675.29840316351 514.708308932904Q1669.6942364968431 511.8124755995707 1666.6525698301766 507.6249755995707Q1663.6109031635096 503.458308932904 1663.6109031635096 496.7916422662374L1663.6109031635096 496.7916422662374Q1663.6109031635096 486.6041422662374 1671.86090316351 481.14580893290406Q1680.0900698301766 475.70830893290406 1693.5067364968431 475.70830893290406L1693.5067364968431 475.70830893290406Q1700.7567364968431 475.70830893290406 1707.0900698301766 477.1249755995707Q1713.42340316351 478.5624755995707 1718.92340316351 480.9791422662373L1718.92340316351 480.9791422662373L1714.8192364968431 490.708308932904Q1709.8400698301766 488.58330893290406 1704.1942364968431 487.1249755995707Q1698.54840316351 485.6666422662373 1692.6942364968436 485.6666422662373L1692.6942364968436 485.6666422662373Q1684.2775698301766 485.6666422662373 1679.7775698301766 488.4374755995707Q1675.2567364968431 491.2291422662374 1675.2567364968431 496.0624755995707L1675.2567364968431 496.0624755995707Q1675.2567364968431 499.7916422662373 1677.3400698301766 502.208308932904Q1679.4442364968431 504.6249755995707 1684.0484031635096 506.7499755995707Q1688.67340316351 508.8749755995707 1696.2150698301766 511.7291422662374L1696.2150698301766 511.7291422662374Q1703.7567364968436 514.520808932904 1709.2567364968431 517.4791422662374Q1714.73590316351 520.458308932904 1717.7150698301766 524.6666422662373Q1720.6734031635096 528.8749755995707 1720.6734031635096 535.458308932904ZM1766.1525698301766 548.9374755995707L1766.1525698301766 548.9374755995707Q1769.1525698301766 548.9374755995707 1772.3192364968431 548.4374755995707Q1775.4650698301766 547.9166422662374 1777.4442364968431 547.1874755995707L1777.4442364968431 547.1874755995707L1777.4442364968431 556.6249755995707Q1775.3192364968431 557.583308932904 1771.54840316351 558.2499755995707Q1767.7775698301766 558.895808932904 1764.17340316351 558.895808932904L1764.17340316351 558.895808932904Q1757.79840316351 558.895808932904 1752.61090316351 556.6666422662374Q1747.4025698301766 554.4374755995707 1744.29840316351 549.083308932904Q1741.17340316351 543.7499755995707 1741.17340316351 534.2916422662374L1741.17340316351 534.2916422662374L1741.17340316351 486.6874755995707L1729.7567364968431 486.6874755995707L1729.7567364968431 480.7499755995707L1741.2567364968436 475.9999755995707L1746.0900698301766 458.5624755995707L1753.4025698301766 458.5624755995707L1753.4025698301766 477.1666422662374L1776.92340316351 477.1666422662374L1776.92340316351 486.6874755995707L1753.4025698301766 486.6874755995707L1753.4025698301766 533.9166422662374Q1753.4025698301766 541.4791422662374 1756.8817364968436 545.208308932904Q1760.3609031635096 548.9374755995707 1766.1525698301766 548.9374755995707ZM1870.3817364968436 475.70830893290406L1870.3817364968436 475.70830893290406Q1885.4025698301766 475.70830893290406 1894.340069830177 486.020808932904Q1903.2567364968436 496.3541422662374 1903.2567364968436 517.083308932904L1903.2567364968436 517.083308932904Q1903.2567364968436 530.770808932904 1899.17340316351 540.083308932904Q1895.0692364968431 549.3749755995707 1887.6317364968436 554.145808932904Q1880.1942364968431 558.895808932904 1870.0900698301766 558.895808932904L1870.0900698301766 558.895808932904Q1863.7150698301766 558.895808932904 1858.8817364968431 557.208308932904Q1854.04840316351 555.5416422662374 1850.61090316351 552.6666422662374Q1847.1525698301766 549.8124755995707 1844.8817364968436 546.4583089329041L1844.8817364968436 546.4583089329041L1844.0067364968431 546.4583089329041Q1844.23590316351 549.3124755995707 1844.5692364968431 553.333308932904Q1844.8817364968436 557.3541422662374 1844.8817364968436 560.3749755995707L1844.8817364968436 560.3749755995707L1844.8817364968436 593.3333089329041L1832.6525698301766 593.3333089329041L1832.6525698301766 477.1666422662374L1842.6942364968431 477.1666422662374L1844.29840316351 489.020808932904L1844.8817364968436 489.020808932904Q1847.23590316351 485.3749755995707 1850.61090316351 482.33330893290406Q1853.965069830177 479.2916422662374 1858.8400698301766 477.4999755995707Q1863.7150698301766 475.70830893290406 1870.3817364968436 475.70830893290406ZM1868.2567364968431 485.958308932904L1868.2567364968431 485.958308932904Q1859.9025698301766 485.958308932904 1854.8192364968436 489.1666422662373Q1849.73590316351 492.395808932904 1847.3817364968431 498.8124755995707Q1845.04840316351 505.208308932904 1844.8817364968436 514.8749755995707L1844.8817364968436 514.8749755995707L1844.8817364968436 517.2291422662374Q1844.8817364968436 527.4166422662374 1847.1317364968431 534.4374755995707Q1849.36090316351 541.4791422662374 1854.5275698301766 545.1249755995707Q1859.6942364968436 548.7916422662374 1868.4025698301766 548.7916422662374L1868.4025698301766 548.7916422662374Q1875.8817364968436 548.7916422662374 1880.86090316351 544.770808932904Q1885.8400698301766 540.7291422662374 1888.2775698301766 533.520808932904Q1890.73590316351 526.3124755995707 1890.73590316351 516.9374755995707L1890.73590316351 516.9374755995707Q1890.73590316351 502.7291422662374 1885.215069830177 494.333308932904Q1879.67340316351 485.958308932904 1868.2567364968431 485.958308932904ZM1960.9025698301766 475.70830893290406L1960.9025698301766 475.70830893290406Q1963.3192364968431 475.70830893290406 1965.965069830177 475.958308932904Q1968.5900698301766 476.208308932904 1970.652569830177 476.645808932904L1970.652569830177 476.645808932904L1969.11090316351 487.9374755995707Q1967.1317364968431 487.4166422662374 1964.7150698301766 487.1249755995707Q1962.29840316351 486.833308932904 1960.17340316351 486.833308932904L1960.17340316351 486.833308932904Q1955.3400698301766 486.833308932904 1951.04840316351 488.770808932904Q1946.7775698301766 490.708308932904 1943.54840316351 494.333308932904Q1940.3192364968431 497.958308932904 1938.48590316351 503.0624755995707Q1936.67340316351 508.145808932904 1936.67340316351 514.3749755995707L1936.67340316351 514.3749755995707L1936.67340316351 557.4374755995707L1924.42340316351 557.4374755995707L1924.42340316351 477.1666422662374L1934.54840316351 477.1666422662374L1935.86090316351 491.958308932904L1936.3817364968431 491.958308932904Q1938.86090316351 487.4999755995707 1942.3817364968431 483.7916422662374Q1945.902569830177 480.083308932904 1950.54840316351 477.895808932904Q1955.1942364968431 475.70830893290406 1960.9025698301766 475.70830893290406ZM2054.944236496843 517.145808932904L2054.944236496843 517.145808932904Q2054.944236496843 527.0416422662373 2052.381736496843 534.8124755995707Q2049.8192364968436 542.5624755995707 2044.98590316351 547.9166422662374Q2040.152569830177 553.270808932904 2033.29840316351 556.083308932904Q2026.4650698301766 558.895808932904 2017.8192364968436 558.895808932904L2017.8192364968436 558.895808932904Q2009.7567364968436 558.895808932904 2003.04840316351 556.083308932904Q1996.36090316351 553.270808932904 1991.48590316351 547.9166422662374Q1986.61090316351 542.5624755995707 1983.9442364968436 534.8124755995707Q1981.2775698301766 527.0416422662373 1981.2775698301766 517.145808932904L1981.2775698301766 517.145808932904Q1981.2775698301766 503.9791422662374 1985.73590316351 494.708308932904Q1990.1942364968436 485.4374755995707 1998.527569830177 480.5624755995707Q2006.840069830177 475.70830893290406 2018.3192364968436 475.70830893290406L2018.3192364968436 475.70830893290406Q2029.3192364968436 475.70830893290406 2037.54840316351 480.6041422662373Q2045.79840316351 485.520808932904 2050.3817364968436 494.77080893290406Q2054.944236496843 504.0416422662374 2054.944236496843 517.145808932904ZM1993.86090316351 517.145808932904L1993.86090316351 517.145808932904Q1993.86090316351 526.8124755995707 1996.42340316351 533.9166422662374Q1998.98590316351 541.020808932904 2004.3400698301766 544.9166422662374Q2009.6942364968436 548.7916422662374 2018.11090316351 548.7916422662374L2018.11090316351 548.7916422662374Q2026.4650698301766 548.7916422662374 2031.840069830177 544.9166422662374Q2037.23590316351 541.020808932904 2039.79840316351 533.9166422662374Q2042.36090316351 526.8124755995707 2042.36090316351 517.145808932904L2042.36090316351 517.145808932904Q2042.36090316351 507.5624755995707 2039.79840316351 500.5624755995707Q2037.23590316351 493.5624755995707 2031.8817364968436 489.77080893290406Q2026.5275698301766 485.958308932904 2018.027569830177 485.958308932904L2018.027569830177 485.958308932904Q2005.5067364968431 485.958308932904 1999.6942364968431 494.2291422662374Q1993.86090316351 502.4999755995707 1993.86090316351 517.145808932904ZM2066.29840316351 593.4791422662373L2066.29840316351 593.4791422662373Q2062.5692364968436 593.4791422662373 2059.7775698301766 592.9166422662373Q2057.006736496843 592.3749755995707 2054.944236496843 591.6458089329041L2054.944236496843 591.6458089329041L2054.944236496843 581.7499755995707Q2057.2150698301766 582.4791422662373 2059.569236496843 582.8958089329041Q2061.9025698301766 583.2916422662373 2064.8400698301766 583.2916422662373L2064.8400698301766 583.2916422662373Q2069.819236496843 583.2916422662373 2072.9025698301766 580.4999755995707Q2075.9650698301766 577.7291422662373 2075.9650698301766 570.3958089329041L2075.9650698301766 570.3958089329041L2075.9650698301766 477.1666422662374L2088.1317364968436 477.1666422662374L2088.1317364968436 570.1041422662373Q2088.1317364968436 577.4374755995707 2085.777569830177 582.6666422662373Q2083.4442364968436 587.9166422662373 2078.61090316351 590.6874755995707Q2073.777569830177 593.4791422662373 2066.29840316351 593.4791422662373ZM2074.8817364968436 455.1249755995707L2074.8817364968436 455.1249755995707Q2074.8817364968436 451.02080893290406 2076.9650698301766 449.08330893290406Q2079.04840316351 447.1249755995707 2082.1942364968436 447.1249755995707L2082.1942364968436 447.1249755995707Q2085.194236496843 447.1249755995707 2087.36090316351 449.08330893290406Q2089.5275698301766 451.02080893290406 2089.5275698301766 455.1249755995707L2089.5275698301766 455.1249755995707Q2089.5275698301766 459.14580893290406 2087.36090316351 461.1249755995707Q2085.194236496843 463.1041422662373 2082.1942364968436 463.1041422662373L2082.1942364968436 463.1041422662373Q2079.04840316351 463.1041422662373 2076.9650698301766 461.1249755995707Q2074.8817364968436 459.14580893290406 2074.8817364968436 455.1249755995707ZM2144.73590316351 475.70830893290406L2144.73590316351 475.70830893290406Q2155.0067364968436 475.70830893290406 2162.3192364968436 480.2499755995707Q2169.6525698301766 484.770808932904 2173.5275698301766 492.9374755995707Q2177.4025698301766 501.1041422662374 2177.4025698301766 512.020808932904L2177.4025698301766 512.020808932904L2177.4025698301766 519.5624755995707L2121.965069830177 519.5624755995707Q2122.1942364968436 533.708308932904 2129.0067364968436 541.1041422662373Q2135.8192364968436 548.4999755995707 2148.194236496843 548.4999755995707L2148.194236496843 548.4999755995707Q2155.79840316351 548.4999755995707 2161.67340316351 547.1041422662374Q2167.5275698301766 545.708308932904 2173.8192364968436 542.9999755995707L2173.8192364968436 542.9999755995707L2173.8192364968436 553.708308932904Q2167.73590316351 556.4166422662374 2161.7775698301766 557.6666422662374Q2155.79840316351 558.895808932904 2147.67340316351 558.895808932904L2147.67340316351 558.895808932904Q2136.11090316351 558.895808932904 2127.5067364968436 554.1874755995707Q2118.8817364968436 549.458308932904 2114.1317364968436 540.2916422662373Q2109.36090316351 531.145808932904 2109.36090316351 517.895808932904L2109.36090316351 517.895808932904Q2109.36090316351 504.9166422662374 2113.73590316351 495.4374755995707Q2118.0900698301766 485.958308932904 2126.0275698301766 480.833308932904Q2133.98590316351 475.70830893290406 2144.73590316351 475.70830893290406ZM2144.590069830177 485.6666422662373L2144.590069830177 485.6666422662373Q2134.86090316351 485.6666422662373 2129.0692364968436 492.0416422662374Q2123.277569830177 498.395808932904 2122.1942364968436 509.833308932904L2122.1942364968436 509.833308932904L2164.67340316351 509.833308932904Q2164.5900698301766 502.645808932904 2162.42340316351 497.1874755995707Q2160.2775698301766 491.7291422662374 2155.8817364968436 488.708308932904Q2151.48590316351 485.6666422662373 2144.590069830177 485.6666422662373ZM2230.2150698301766 558.895808932904L2230.2150698301766 558.895808932904Q2219.3817364968436 558.895808932904 2211.11090316351 554.4374755995707Q2202.8192364968436 549.958308932904 2198.2150698301766 540.8124755995707Q2193.5900698301766 531.645808932904 2193.5900698301766 517.7499755995707L2193.5900698301766 517.7499755995707Q2193.5900698301766 503.1666422662374 2198.4650698301766 493.895808932904Q2203.3400698301766 484.6249755995707 2211.9025698301766 480.1666422662373Q2220.48590316351 475.70830893290406 2231.3817364968436 475.70830893290406L2231.3817364968436 475.70830893290406Q2237.4025698301766 475.70830893290406 2243.006736496843 476.9166422662374Q2248.61090316351 478.1249755995707 2252.1942364968436 479.9374755995707L2252.1942364968436 479.9374755995707L2248.5275698301766 490.1249755995707Q2244.86090316351 488.6666422662374 2240.0692364968436 487.4999755995707Q2235.2775698301766 486.3124755995707 2231.0900698301766 486.3124755995707L2231.0900698301766 486.3124755995707Q2222.7567364968436 486.3124755995707 2217.2150698301766 489.9166422662374Q2211.6942364968436 493.4999755995707 2208.9442364968436 500.458308932904Q2206.1942364968436 507.4166422662374 2206.1942364968436 517.5833089329041L2206.1942364968436 517.5833089329041Q2206.1942364968436 527.333308932904 2208.86090316351 534.2291422662374Q2211.54840316351 541.1041422662373 2216.86090316351 544.7291422662374Q2222.1525698301766 548.3541422662374 2230.1525698301766 548.3541422662374L2230.1525698301766 548.3541422662374Q2236.5275698301766 548.3541422662374 2241.6525698301766 546.9999755995707Q2246.7775698301766 545.6458089329041 2250.9442364968436 543.8124755995707L2250.9442364968436 543.8124755995707L2250.9442364968436 554.645808932904Q2246.92340316351 556.708308932904 2241.9650698301766 557.8124755995707Q2237.0275698301766 558.895808932904 2230.2150698301766 558.895808932904ZM2295.8400698301766 548.9374755995707L2295.8400698301766 548.9374755995707Q2298.8400698301766 548.9374755995707 2302.0067364968436 548.4374755995707Q2305.1525698301766 547.9166422662374 2307.1317364968436 547.1874755995707L2307.1317364968436 547.1874755995707L2307.1317364968436 556.6249755995707Q2305.0067364968436 557.583308932904 2301.23590316351 558.2499755995707Q2297.4650698301766 558.895808932904 2293.86090316351 558.895808932904L2293.86090316351 558.895808932904Q2287.48590316351 558.895808932904 2282.29840316351 556.6666422662374Q2277.0900698301766 554.4374755995707 2273.98590316351 549.083308932904Q2270.86090316351 543.7499755995707 2270.86090316351 534.2916422662374L2270.86090316351 534.2916422662374L2270.86090316351 486.6874755995707L2259.4442364968436 486.6874755995707L2259.4442364968436 480.7499755995707L2270.9442364968436 475.9999755995707L2275.7775698301766 458.5624755995707L2283.0900698301766 458.5624755995707L2283.0900698301766 477.1666422662374L2306.61090316351 477.1666422662374L2306.61090316351 486.6874755995707L2283.0900698301766 486.6874755995707L2283.0900698301766 533.9166422662374Q2283.0900698301766 541.4791422662374 2286.5692364968436 545.208308932904Q2290.04840316351 548.9374755995707 2295.8400698301766 548.9374755995707Z " fill="#7d1122" transform="matrix(0.37925881392376537,0,0,0.3792588139237654,0,103.36221387009017)"/></g></svg>